<svg width="0" height="0" class="hidden">
  <symbol xmlns="http://www.w3.org/2000/svg" viewBox="0 0 512 512" id="build">
    <path d="M407.555 272.497c0 28.278-23.007 51.285-51.285 51.285-28.221 0-51.178-23.007-51.178-51.285 0-3.993.46-7.945 1.371-11.812h-45.777v52.091a4.685 4.685 0 01-6.331 4.388 42.16 42.16 0 00-14.853-2.702c-23.112 0-41.914 18.755-41.914 41.808 0 23.111 18.802 41.914 41.914 41.914 5.146 0 10.116-.935 14.773-2.778a4.689 4.689 0 014.358.481 4.685 4.685 0 012.052 3.875v52.092H388.3c35.043 0 63.554-28.511 63.554-63.554V260.686h-45.699c.93 3.827 1.4 7.778 1.4 11.811z"></path>
    <path d="M188.218 356.27c0-28.221 23.007-51.178 51.285-51.178 3.993 0 7.945.46 11.812 1.371v-45.777h-52.09a4.686 4.686 0 01-4.388-6.329 42.173 42.173 0 002.701-14.853c0-23.112-18.754-41.914-41.807-41.914-23.111 0-41.914 18.802-41.914 41.914 0 5.146.934 10.117 2.777 14.773a4.686 4.686 0 01-4.355 6.41H60.147V388.3c0 35.043 28.51 63.554 63.553 63.554h127.614v-45.698a49.922 49.922 0 01-11.812 1.399c-28.277 0-51.284-23.007-51.284-51.285z"></path>
    <path d="M104.446 239.503c0-28.278 23.006-51.285 51.285-51.285 28.22 0 51.178 23.007 51.178 51.285 0 3.994-.459 7.946-1.371 11.812h45.777v-53.59a4.685 4.685 0 016.967-4.093c6.094 3.397 12.973 5.192 19.894 5.192 23.052 0 41.807-19.331 41.807-43.092s-18.755-43.092-41.807-43.092c-7.095 0-13.956 1.785-19.843 5.163a4.685 4.685 0 01-7.017-4.064V60.147H123.7c-35.043 0-63.553 28.51-63.553 63.553v127.614h45.698a49.914 49.914 0 01-1.399-11.811z"></path>
    <path d="M388.3 60.147H260.686v46.238c5.504-2.052 11.436-3.117 17.489-3.117 28.22 0 51.178 23.534 51.178 52.463 0 28.928-22.958 52.463-51.178 52.463a50.211 50.211 0 01-17.489-3.163v46.283h52.092a4.685 4.685 0 014.387 6.331 42.149 42.149 0 00-2.701 14.852c0 23.111 18.754 41.914 41.807 41.914 23.111 0 41.914-18.803 41.914-41.914 0-5.145-.935-10.115-2.779-14.772a4.678 4.678 0 01.483-4.358 4.69 4.69 0 013.875-2.052h52.092V123.7c-.002-35.043-28.513-63.553-63.556-63.553z"></path>
  </symbol>
  <symbol xmlns="http://www.w3.org/2000/svg" viewBox="0 0 464 464" id="build2">
    <path d="M365.367 325.945L352 339.313l-13.367-13.368A20.162 20.162 0 00324.289 320C313.105 320 304 329.105 304 340.29a20.162 20.162 0 005.945 14.343L352 396.688l42.055-42.055A20.162 20.162 0 00400 340.289c0-11.184-9.105-20.289-20.29-20.289a20.162 20.162 0 00-14.343 5.945zM144 352c0 17.672-14.328 32-32 32s-32-14.328-32-32 14.328-32 32-32 32 14.328 32 32zm-9.176-194.168c2.137 1.977 5.153 4.777 7.664 6.762-.465-3.305-1.441-7.563-2.12-10.547-2.298-10-4.466-19.438-.641-26.063 3.722-6.433 12.378-9.054 22.394-12.097 3.32-1 8.176-2.48 11.39-3.887-3.214-1.406-8.077-2.887-11.39-3.887-10.016-3.035-18.672-5.664-22.394-12.097-3.825-6.618-1.657-16.063.64-26.063.688-2.984 1.664-7.242 2.121-10.547-2.511 1.985-5.535 4.785-7.664 6.762C127.144 73.281 119.894 80 112 80s-15.145-6.719-22.824-13.832c-2.137-1.977-5.153-4.777-7.664-6.762.465 3.305 1.441 7.563 2.12 10.547 2.298 10 4.466 19.438.641 26.063-3.722 6.433-12.378 9.054-22.394 12.097-3.32 1-8.184 2.48-11.399 3.887 3.215 1.406 8.079 2.887 11.391 3.887 10.016 3.035 18.672 5.664 22.395 12.097 3.824 6.618 1.656 16.063-.641 26.063-.688 2.984-1.664 7.242-2.121 10.547 2.512-1.985 5.535-4.785 7.664-6.762C96.855 150.719 104.105 144 112 144s15.145 6.719 22.824 13.832zm0 0"></path>
    <path d="M88 248c0 13.23 10.77 24 24 24s24-10.77 24-24v-24h88v-88h24c13.23 0 24-10.77 24-24s-10.77-24-24-24h-24V0H40C17.945 0 0 17.945 0 40v184h88zm-16.023-66.727c-9.72-5.617-6.778-18.425-3.938-30.808 1.016-4.434 2.68-11.688 2.313-14.367-2.122-1.555-8.946-3.625-13.122-4.891C45.406 127.617 32 123.551 32 112s13.406-15.617 25.23-19.2c4.176-1.265 11.008-3.335 13.122-4.89.367-2.68-1.297-9.933-2.313-14.375-2.84-12.383-5.781-25.183 3.938-30.816 9.52-5.489 18.953 3.258 28.078 11.715 3.672 3.406 9.824 9.101 12.203 9.59 1.863-.489 8.008-6.184 11.687-9.59 9.125-8.457 18.559-17.22 28.078-11.707 9.72 5.617 6.778 18.425 3.938 30.808-1.016 4.434-2.68 11.688-2.313 14.367 2.122 1.555 8.946 3.625 13.122 4.891C178.594 96.383 192 100.449 192 112s-13.406 15.617-25.23 19.2c-4.176 1.265-11.008 3.335-13.122 4.89-.367 2.68 1.297 9.933 2.313 14.375 2.84 12.383 5.781 25.183-3.938 30.816-2.062 1.192-4.128 1.711-6.183 1.711-7.414 0-14.75-6.8-21.895-13.426-3.672-3.406-9.824-9.101-12.203-9.59-1.863.489-8.008 6.184-11.687 9.59-9.125 8.457-18.559 17.235-28.078 11.707zm0 0"></path>
    <path d="M176 352c0-22.055 17.945-40 40-40h8v-72h-72v8c0 22.055-17.945 40-40 40s-40-17.945-40-40v-8H0v184c0 22.055 17.945 40 40 40h184v-72h-8c-22.055 0-40-17.945-40-40zm-64 48c-26.473 0-48-21.527-48-48s21.527-48 48-48 48 21.527 48 48-21.527 48-48 48zm201.617-288L352 169.574 390.383 112 352 54.426zm0 0"></path>
    <path d="M424 0H240v72h8c22.055 0 40 17.945 40 40s-17.945 40-40 40h-8v72h88v24c0 13.23 10.77 24 24 24s24-10.77 24-24v-24h88V40c0-22.055-17.945-40-40-40zm-72 198.426L294.383 112 352 25.574 409.617 112zm0 0"></path>
    <path d="M392 248c0 22.055-17.945 40-40 40s-40-17.945-40-40v-8h-72v88h-24c-13.23 0-24 10.77-24 24s10.77 24 24 24h24v88h224V240h-72zm24 92.29c0 9.687-3.777 18.808-10.633 25.655L352 419.313l-53.367-53.368C291.777 359.09 288 349.977 288 340.29c0-20.009 16.281-36.29 36.29-36.29 9.687 0 18.808 3.777 25.655 10.633l2.055 2.055 2.055-2.055C360.91 307.777 370.023 304 379.71 304c20.009 0 36.29 16.281 36.29 36.29zm0 0"></path>
  </symbol>
  <symbol version="1.0" xmlns="http://www.w3.org/2000/svg" viewBox="0 0 512 512" id="define">
    <path d="M240.5 81.6c-31.8 3.7-57.5 12.9-81.9 29.2-44.5 29.8-72.4 77.7-77.2 132.4l-.6 7.8h50.1c27.5 0 50.1-.2 50.1-.4s.6-3.7 1.4-7.8c3.1-16.1 9.3-27.6 21-39.4 11.8-11.7 23.3-17.9 39.4-21 4.1-.8 7.6-1.4 7.8-1.4.2 0 .4-9 .4-20.1v-20l-5.7.6c-39.6 4.7-72.3 26.4-90.3 59.8-4.8 8.8-6.1 10.1-9.5 9.3-4.4-1.1-4.2-4.6.8-14 17.1-32.2 49.4-56 85.2-62.9 4.4-.9 10.6-1.9 13.8-2.2l5.7-.6V81l-3.7.1c-2.1.1-5.1.4-6.8.5zm20.5 24.2v25l9.5 1.1c27.7 3.5 53.5 16 73.3 35.4 19.6 19.3 32.7 46.2 36.3 74.2l1.1 9.5h50l-.6-7.8c-2.2-24.7-8.7-47.3-19.6-68.1-28.4-53.9-80.5-88.2-142.2-93.7l-7.8-.6v25z"></path>
    <path d="M261 161c0 11 .2 20 .4 20s3.7.6 7.8 1.4c16.1 3.1 27.6 9.3 39.4 21 11.7 11.8 17.9 23.3 21 39.4.8 4.1 1.4 7.6 1.4 7.8 0 .2 9.1.4 20.1.4h20.1l-.7-5.8c-2.7-23.1-10.3-41.8-24.1-59.9-17.2-22.4-43.8-38.1-72.4-42.8-5.2-.8-10.3-1.5-11.2-1.5-1.7 0-1.8 1.6-1.8 20z"></path>
    <path d="M244.1 192.1c-12.4 2.1-25.3 9.2-34.9 19.4-9.5 10-15.7 22.6-17.5 35.7l-.6 3.8h18.3c16.4 0 18.5.2 19.9 1.8 2.2 2.4 2.1 4.5-.1 6.5-1.6 1.5-4.5 1.7-20 1.7h-18.1l.6 3.7c2 14.3 8 26.1 18.7 36.8 10.9 10.8 22.7 16.9 36.9 18.8l3.7.6v-18.3c0-16.4.2-18.5 1.8-19.9 2.4-2.2 4.5-2.1 6.5.1 1.5 1.6 1.7 4.5 1.7 20V321l3.3-.6c16.4-2.9 26.2-7.9 37.2-18.9 11-11 16-20.8 18.9-37.3l.6-3.2h-23.4c-21.3 0-23.4-.2-24.9-1.8-2.2-2.4-2.1-4.5.1-6.5 1.6-1.5 4.9-1.7 25-1.7h23.1l-.6-3.8c-1.9-14.2-8-25.9-18.8-36.7-10.8-10.8-22.5-16.9-36.7-18.8l-3.8-.6v23.3c0 21.3-.2 23.4-1.8 24.9-2.4 2.2-4.5 2.1-6.5-.1-1.5-1.6-1.7-4.9-1.7-25 0-12.8-.3-23.1-.7-23.1-.5.1-3.2.5-6.2 1zM81.4 268.7c5.5 61.8 39.8 113.9 93.7 142.3 20.8 10.9 43.4 17.4 68.2 19.6l7.7.6v-50l-9.5-1.1c-28-3.6-54.9-16.7-74.2-36.3-19.4-19.8-31.9-45.6-35.4-73.3l-1.1-9.5h-50l.6 7.7z"></path>
    <path d="M141 262.7c0 1 .7 6.1 1.5 11.3 4.7 28.6 20.4 55.2 42.8 72.4 18.1 13.8 36.8 21.4 60 24.1l5.7.7v-20.1c0-11-.2-20.1-.4-20.1s-3.7-.6-7.8-1.4c-16.1-3.1-27.6-9.3-39.4-21-11.7-11.8-17.9-23.3-21-39.4-.8-4.1-1.4-7.6-1.4-7.8 0-.2-9-.4-20-.4-18.4 0-20 .1-20 1.7zm190-1.3c0 .2-.6 3.7-1.4 7.8-3.1 16.1-9.3 27.6-21 39.4-11.8 11.7-23.3 17.9-39.4 21-4.1.8-7.6 1.4-7.8 1.4-.2 0-.4 9-.4 20 0 15.3.3 20 1.3 20 .6 0 5.6-.7 11-1.5 36.4-5.5 66.6-27.3 85.2-61.4 4.4-8.2 6.6-10.2 9.2-8.5 3.7 2.3 3.8 4 .8 10.6-5.5 11.4-14.5 24-24.4 33.9-21.2 21.1-46.5 33.1-77.3 36.4l-5.8.6v50.1l7.8-.6c24.7-2.2 47.3-8.7 68.1-19.6 53.9-28.4 88.2-80.5 93.7-142.3l.6-7.7h-50.1c-27.5 0-50.1.2-50.1.4z"></path>
  </symbol>
  <symbol xmlns="http://www.w3.org/2000/svg" viewBox="0 0 512 512" id="devine2">
    <path d="M34.882 35.314v441.373h442.236V35.314H34.882zm411.931 309.959c-19.665 41.122-51.416 74.165-91.818 95.555-30.766 16.287-64.438 24.642-98.691 24.643-9.126 0-18.292-.594-27.458-1.788-42.609-5.55-81.992-23.554-113.893-52.065-18.665-16.683-34.121-36.461-45.94-58.782C42.57 302.888 37.161 245.634 53.781 191.62c16.62-54.015 53.28-98.325 103.226-124.767 49.947-26.443 107.199-31.85 161.214-15.231 54.014 16.62 98.323 53.28 124.766 103.226a4.318 4.318 0 11-7.634 4.041c-25.362-47.907-67.863-83.07-119.672-99.012-51.809-15.942-106.726-10.753-154.634 14.609-61.276 32.441-99.109 92.025-106.579 156.187h57.691c11.132-69.361 71.391-122.521 143.84-122.521a4.318 4.318 0 110 8.636c-75.571 0-137.052 61.481-137.052 137.053 0 75.57 61.481 137.052 137.052 137.052a4.318 4.318 0 110 8.636c-80.333 0-145.69-65.356-145.69-145.689 0-4.904.248-9.751.723-14.532H53.649c-2.697 36.726 4.533 74.605 22.997 109.483 11.337 21.415 26.163 40.387 44.063 56.385 37.913 33.886 86.531 51.457 135.508 51.461 32.416.001 64.98-7.692 94.734-23.444 78.277-41.44 120.433-127.817 104.899-214.938a4.319 4.319 0 118.503-1.515c7.805 43.772 1.74 88.219-17.54 128.533zm-94.655-189.255l-29.242 38.868c8.303 9.413 14.571 20.573 18.344 32.938 6.95 22.773 4.615 46.89-6.574 67.907s-29.894 36.421-52.668 43.37c-8.6 2.624-17.388 3.924-26.13 3.924-14.413 0-28.695-3.534-41.778-10.499-21.017-11.188-36.419-29.894-43.369-52.667-6.951-22.774-4.615-46.891 6.574-67.907a4.318 4.318 0 015.841-1.783 4.317 4.317 0 011.783 5.841c-10.105 18.98-12.213 40.761-5.938 61.328s20.187 37.459 39.168 47.564c10.537 5.609 21.937 8.749 33.512 9.364v-38.651a41.758 41.758 0 01-21.93-8.964c-18.091-14.474-21.035-40.967-6.563-59.059 14.474-18.091 40.969-21.035 59.059-6.562a4.32 4.32 0 01.676 6.07 4.32 4.32 0 01-6.07.674c-14.373-11.497-35.42-9.16-46.919 5.213-11.498 14.373-9.159 35.419 5.214 46.918 14.372 11.496 35.418 9.159 46.918-5.214a33.449 33.449 0 007.314-21.065 4.317 4.317 0 014.288-4.349h.03a4.32 4.32 0 014.319 4.289 42.12 42.12 0 01-9.208 26.522c-7.309 9.135-17.684 14.401-28.492 15.521v38.647a81.107 81.107 0 0019.179-3.417c20.567-6.277 37.459-20.188 47.563-39.168 10.106-18.981 12.214-40.761 5.938-61.329-6.275-20.566-20.186-37.458-39.168-47.563-26.201-13.949-57.835-12.376-82.558 4.106a4.319 4.319 0 11-4.791-7.187c27.371-18.249 62.396-19.99 91.409-4.544a89.786 89.786 0 0117.719 12.364l28.924-38.444c-13.398-11.298-29.125-20.148-46.622-25.762a4.318 4.318 0 112.639-8.224c29.153 9.353 54.247 27.364 72.569 52.084 18.691 25.218 28.57 55.187 28.57 86.667 0 54.164-29.771 103.549-77.697 128.883a4.32 4.32 0 11-4.037-7.638c45.088-23.833 73.098-70.291 73.098-121.246.001-37.806-15.281-72.67-40.894-97.82z"></path>
  </symbol>
  <symbol xmlns="http://www.w3.org/2000/svg" viewBox="0 0 512 512" id="strategy2">
    <path d="M148.43 386.02c-1.71 0-3.44-.57-4.87-1.74l-52.31-42.61c.04.21.08.42.1.63.9 8.73-1.67 17.3-7.24 24.11-5.55 6.8-13.42 11.05-22.15 11.95-18.1 1.82-34.19-11.3-36.06-29.32-1.85-18.03 11.3-34.2 29.32-36.06.26-.03.51-.04.76-.04L3.85 270.49a7.771 7.771 0 01-2.81-5.21 7.81 7.81 0 011.7-5.67l47.38-58.16c-.32.08-.66.14-.98.17-18.11 1.87-34.2-11.33-36.06-29.38-1.85-18.03 11.3-34.2 29.32-36.06 18.12-1.85 34.2 11.3 36.06 29.32.04.37.05.74.03 1.11l31.17-38.27c1.3-1.59 3.17-2.6 5.21-2.81 2.03-.22 4.07.4 5.67 1.69l59.21 48.24a7.733 7.733 0 012.29 8.88c-1.26 3.14-4.22 5.17-7.8 4.81-1.71-.14-3.25-.52-4.47-.92-3.95.8-7.46 2.91-10.03 6.07-2.93 3.61-4.29 8.14-3.8 12.76.48 4.63 2.72 8.79 6.32 11.72s8.2 4.28 12.77 3.81c9.01-.93 15.73-8.56 15.69-17.41-.6-1.06-1.25-2.41-1.73-3.96-1-3.25.25-6.78 3.07-8.67a7.719 7.719 0 019.2.42l58.98 48.05c3.31 2.69 3.8 7.56 1.11 10.87l-47.4 58.2a7.762 7.762 0 01-7.43 2.71 7.705 7.705 0 01-5.92-5.23c-1.28-4.01-.54-7.89.28-10.4-1.77-8.66-9.91-14.7-18.84-13.82-9.55.98-16.51 9.55-15.53 19.1.93 8.98 8.51 15.68 17.31 15.68h.08c2.26-1.29 5.81-2.74 9.94-2.38 2.84.27 5.3 2.08 6.41 4.71 1.1 2.63.66 5.65-1.14 7.86l-44.67 54.83a7.694 7.694 0 01-6.01 2.87zm-59.74-64.11c1.76 0 3.49.6 4.88 1.74l53.75 43.78 28.37-34.84c-12.96-3.32-23.12-14.44-24.58-28.54-1.85-18.03 11.3-34.2 29.32-36.06 14.18-1.42 27.07 6.29 32.93 18.34l31.11-38.19-39.96-32.56c-3.96 11.91-14.61 21.03-27.91 22.4-8.73.92-17.29-1.65-24.1-7.19-6.81-5.54-11.06-13.4-11.95-22.13-.9-8.73 1.65-17.28 7.19-24.09 2.59-3.18 5.68-5.8 9.14-7.79l-40.12-32.68-32 39.28c-1.6 1.97-4.11 3.06-6.61 2.82-8.78-.71-12.78-4.74-14.58-8-2.63-4.75-1.74-9.79-.75-12.81-1.76-8.67-9.88-14.73-18.84-13.84-9.55.98-16.51 9.55-15.53 19.1.92 8.98 8.51 15.68 17.31 15.68h.09c2.75-1.56 7.49-3.44 12.65-1.85 3.54 1.09 8.29 4.15 10.79 12.52.73 2.45.2 5.11-1.41 7.1L19.6 263.39l53.48 43.56a7.706 7.706 0 012.81 6.69c-.78 8.6-4.8 12.51-8.03 14.27-4.74 2.59-9.76 1.69-12.75.71-8.66 1.76-14.77 9.87-13.84 18.84.98 9.54 9.57 16.48 19.1 15.53 4.63-.48 8.81-2.73 11.76-6.35 2.57-3.16 3.94-7.02 3.92-11.02-1.58-2.74-3.44-7.41-1.87-12.62 1.06-3.51 4.04-8.22 12.21-10.76.77-.22 1.53-.33 2.3-.33z"></path>
    <path d="M395.23 386.5c-1.8 0-3.54-.62-4.94-1.78l-51.95-43.07c.05.22.08.43.09.64 1.71 18.04-11.61 34.1-29.69 35.81-18.05 1.69-34.11-11.59-35.81-29.63-1.7-18.04 11.6-34.1 29.63-35.81.25-.02.6.06.75-.03l-51.76-42.91c-3.29-2.72-3.74-7.6-1.02-10.88l47.86-57.74c-.32.07-.64.12-.97.15-8.73.8-17.27-1.81-24.05-7.44-6.75-5.61-10.93-13.52-11.75-22.25-.83-8.74 1.8-17.28 7.4-24.04 5.6-6.76 13.49-10.94 22.23-11.76 18.02-1.73 34.1 11.59 35.8 29.63.04.37.05.75.03 1.12l31.51-38.01a7.698 7.698 0 015.23-2.76c1.97-.19 4.07.43 5.65 1.74l58.8 48.74c2.6 2.16 3.5 5.77 2.2 8.9-1.29 3.13-4.4 5.05-7.85 4.74-1.71-.15-3.24-.55-4.45-.96-3.95.76-7.48 2.85-10.07 5.98-2.97 3.58-4.35 8.1-3.92 12.73.91 9.56 9.47 16.63 18.97 15.7 9.02-.85 15.81-8.43 15.83-17.28-.59-1.06-1.23-2.41-1.69-3.96a7.74 7.74 0 013.14-8.66 7.737 7.737 0 019.2.49l58.57 48.55c3.28 2.72 3.74 7.6 1.01 10.88l-47.9 57.79a7.714 7.714 0 01-7.45 2.65 7.742 7.742 0 01-5.88-5.29c-1.25-4.02-.48-7.89.37-10.39-1.69-8.67-9.76-14.84-18.72-13.99-9.55.9-16.59 9.41-15.7 18.96.85 9.01 8.42 15.8 17.26 15.84 2.26-1.27 5.8-2.72 9.96-2.3 2.84.29 5.28 2.12 6.36 4.76 1.08 2.64.62 5.66-1.21 7.86l-45.13 54.45a7.698 7.698 0 01-5.23 2.76c-.22.06-.46.07-.71.07zm-59.32-64.63c1.78 0 3.52.61 4.94 1.78l53.37 44.24 28.68-34.6c-12.93-3.44-23-14.65-24.33-28.75-1.71-18.04 11.58-34.1 29.63-35.81 14.14-1.31 27 6.51 32.77 18.62l31.43-37.92-39.69-32.9c-4.05 11.87-14.78 20.91-28.09 22.17-18.04 1.69-34.1-11.59-35.8-29.63-.83-8.74 1.8-17.28 7.4-24.04 2.61-3.16 5.73-5.75 9.2-7.7l-39.84-33.02-32.34 39.01c-1.61 1.96-4.02 2.97-6.63 2.77-8.78-.78-12.74-4.85-14.51-8.12-2.58-4.77-1.65-9.81-.65-12.81-1.68-8.69-9.78-14.88-18.72-14-4.63.44-8.81 2.65-11.77 6.23-2.97 3.58-4.35 8.11-3.92 12.73.45 4.64 2.66 8.84 6.25 11.82 3.15 2.61 7 4.01 11.02 4.02 2.75-1.54 7.51-3.39 12.67-1.74 3.53 1.12 8.26 4.22 10.69 12.61.71 2.46.16 5.11-1.48 7.08l-48.79 58.86 53.1 44.02a7.719 7.719 0 012.76 6.72c-.86 8.6-4.91 12.47-8.16 14.2-4.75 2.54-9.76 1.61-12.75.6-8.68 1.68-14.85 9.74-14.01 18.73.9 9.55 9.39 16.61 18.97 15.69 9-.85 15.79-8.41 15.83-17.24-1.56-2.75-3.37-7.44-1.76-12.63 1.09-3.5 4.11-8.18 12.31-10.66.73-.22 1.48-.33 2.22-.33z"></path>
  </symbol>
  <symbol xmlns="http://www.w3.org/2000/svg" viewBox="0 -27 512.001 512" id="strategy">
    <path d="M448.285 329.227L512 265.516 448.285 201.8l10.266-10.266c17.762-17.762 17.762-46.66.004-64.422-8.606-8.601-20.047-13.34-32.215-13.34-12.164 0-23.606 4.739-32.207 13.34l-10.266 10.266-63.715-63.715-18.8 18.805v29.719c33.257 7.925 58.066 37.89 58.066 73.539 0 35.652-24.809 65.617-58.066 73.539v92.152h-55.157L235.2 372.414l84.953 84.95 63.715-63.716 8.848 8.852c17.762 17.762 46.66 17.762 64.422 0s17.761-46.66 0-64.422zm0 0"></path>
    <path d="M271.316 331.387V241.28h12.512c25.121 0 45.555-20.433 45.555-45.554 0-25.118-20.434-45.551-45.555-45.551h-12.512V60.07h-90.105V45.555C181.21 20.434 160.777 0 135.656 0c-25.117 0-45.55 20.434-45.55 45.555V60.07H0v90.106h12.516c22.039 0 40.468 15.73 44.656 36.554a15.411 15.411 0 010 17.997c-4.188 20.82-22.617 36.554-44.656 36.554H0v90.106h90.105v-14.52c0-25.117 20.434-45.55 45.551-45.55 25.121 0 45.555 20.433 45.555 45.55v14.52zm0 0"></path>
  </symbol>
  <symbol xmlns="http://www.w3.org/2000/svg" viewBox="0 0 512.001 512.001" id="eye">
    <path d="M503.698 231.895c-28.735-36.843-65.956-67.318-107.637-88.128-42.548-21.243-88.321-32.265-136.104-32.843-1.316-.036-6.6-.036-7.916 0-47.782.579-93.556 11.6-136.104 32.843-41.681 20.81-78.9 51.284-107.636 88.128a39.145 39.145 0 000 48.211c28.735 36.843 65.955 67.318 107.636 88.128 42.548 21.243 88.321 32.265 136.104 32.843 1.316.036 6.6.036 7.916 0 47.782-.579 93.556-11.6 136.104-32.843 41.681-20.81 78.901-51.284 107.637-88.128a39.145 39.145 0 000-48.211zM125.242 349.599c-38.92-19.432-73.678-47.892-100.517-82.303a18.344 18.344 0 010-22.591c26.838-34.411 61.596-62.871 100.517-82.303a293.777 293.777 0 0133.839-14.33c-29.578 26.588-48.213 65.12-48.213 107.928 0 42.81 18.636 81.345 48.217 107.932a293.754 293.754 0 01-33.843-14.333zM256 380.303c-68.542 0-124.304-55.762-124.304-124.304S187.458 131.696 256 131.696 380.304 187.458 380.304 256 324.542 380.303 256 380.303zm231.275-113.008c-26.838 34.411-61.596 62.871-100.517 82.303a293.497 293.497 0 01-33.805 14.299c29.558-26.587 48.179-65.107 48.179-107.898 0-42.814-18.64-81.351-48.223-107.939a293.653 293.653 0 0133.85 14.34c38.92 19.432 73.678 47.892 100.517 82.303a18.346 18.346 0 01-.001 22.592z"></path>
    <path d="M256 202.804c-29.332 0-53.195 23.863-53.195 53.195s23.863 53.195 53.195 53.195 53.195-23.863 53.195-53.195c.001-29.332-23.862-53.195-53.195-53.195zm0 85.563c-17.847 0-32.368-14.519-32.368-32.368 0-17.848 14.519-32.367 32.368-32.367 17.847 0 32.367 14.519 32.367 32.367.001 17.849-14.52 32.368-32.367 32.368z"></path>
  </symbol>
  <symbol xmlns="http://www.w3.org/2000/svg" viewBox="0 -27 512.001 512" id="strategy">
    <path d="M448.285 329.227L512 265.516 448.285 201.8l10.266-10.266c17.762-17.762 17.762-46.66.004-64.422-8.606-8.601-20.047-13.34-32.215-13.34-12.164 0-23.606 4.739-32.207 13.34l-10.266 10.266-63.715-63.715-18.8 18.805v29.719c33.257 7.925 58.066 37.89 58.066 73.539 0 35.652-24.809 65.617-58.066 73.539v92.152h-55.157L235.2 372.414l84.953 84.95 63.715-63.716 8.848 8.852c17.762 17.762 46.66 17.762 64.422 0s17.761-46.66 0-64.422zm0 0"></path>
    <path d="M271.316 331.387V241.28h12.512c25.121 0 45.555-20.433 45.555-45.554 0-25.118-20.434-45.551-45.555-45.551h-12.512V60.07h-90.105V45.555C181.21 20.434 160.777 0 135.656 0c-25.117 0-45.55 20.434-45.55 45.555V60.07H0v90.106h12.516c22.039 0 40.468 15.73 44.656 36.554a15.411 15.411 0 010 17.997c-4.188 20.82-22.617 36.554-44.656 36.554H0v90.106h90.105v-14.52c0-25.117 20.434-45.55 45.551-45.55 25.121 0 45.555 20.433 45.555 45.55v14.52zm0 0"></path>
  </symbol>
    <symbol xmlns="http://www.w3.org/2000/svg" viewBox="0 0 32 32" id="facebook">
    <path d="M16 31.625C7.384 31.625.375 24.615.375 16 .375 7.384 7.384.375 16 .375 24.615.375 31.625 7.384 31.625 16c0 8.615-7.01 15.625-15.625 15.625z" fill="#FFF"></path>
    <path d="M16 .75C24.409.75 31.25 7.591 31.25 16S24.409 31.25 16 31.25.75 24.409.75 16 7.591.75 16 .75M16 0C7.163 0 0 7.163 0 16c0 8.836 7.163 16 16 16s16-7.164 16-16c0-8.837-7.163-16-16-16z" fill="#E5E5E5"></path>
    <path d="M13.69 24.903h3.679v-8.904h2.454l.325-3.068h-2.779l.004-1.536c0-.8.076-1.229 1.224-1.229h1.534V7.097h-2.455c-2.949 0-3.986 1.489-3.986 3.992v1.842h-1.838V16h1.838v8.903z" fill="#333"></path>
  </symbol>
  <symbol xmlns="http://www.w3.org/2000/svg" viewBox="0 0 32 32" id="google">
    <path d="M16 31.625C7.385 31.625.375 24.615.375 16 .375 7.384 7.385.375 16 .375S31.625 7.384 31.625 16c0 8.615-7.01 15.625-15.625 15.625z" fill="#FFF"></path>
    <path d="M16 .75C24.409.75 31.25 7.591 31.25 16S24.409 31.25 16 31.25.75 24.409.75 16 7.591.75 16 .75M16 0C7.163 0 0 7.163 0 16c0 8.836 7.163 16 16 16s16-7.164 16-16c0-8.837-7.163-16-16-16z" fill="#E5E5E5"></path>
    <path d="M12.202 23.565c-4.247 0-7.702-3.393-7.702-7.564s3.455-7.565 7.702-7.565c1.857 0 3.652.659 5.052 1.855l-1.959 2.211a4.766 4.766 0 00-3.094-1.136c-2.602 0-4.719 2.079-4.719 4.634s2.117 4.634 4.719 4.634c2.201 0 3.642-1.055 4.11-2.947h-4.074v-2.93h7.223v1.465c.001 4.391-2.916 7.343-7.258 7.343zm15.299-8.807h-2.234v-2.233h-1.786v2.233h-2.233v1.786h2.233v2.233h1.786v-2.233h2.234z" fill="#333"></path>
  </symbol>
  <symbol xmlns="http://www.w3.org/2000/svg" viewBox="0 0 32 32" id="twitter">
    <path d="M16 31.625C7.384 31.625.375 24.615.375 16S7.384.375 16 .375c8.615 0 15.625 7.01 15.625 15.625S24.615 31.625 16 31.625z" fill="#FFF"></path>
    <path d="M16 .75C24.409.75 31.25 7.591 31.25 16S24.409 31.25 16 31.25.75 24.409.75 16 7.591.75 16 .75M16 0C7.163 0 0 7.163 0 16c0 8.836 7.163 16 16 16s16-7.164 16-16c0-8.837-7.163-16-16-16z" fill="#E5E5E5"></path>
    <path d="M18.226 8.886c-1.59.579-2.595 2.071-2.481 3.704l.038.63-.636-.077c-2.315-.296-4.338-1.299-6.056-2.984l-.84-.836-.215.617c-.458 1.376-.165 2.83.789 3.808.509.54.394.617-.483.296-.305-.103-.573-.18-.598-.141-.089.09.216 1.26.458 1.724.331.644 1.005 1.273 1.743 1.647l.624.296-.739.011c-.712 0-.738.013-.661.284.254.836 1.259 1.724 2.379 2.11l.789.27-.687.412a7.122 7.122 0 01-3.41.951c-.573.013-1.044.064-1.044.103 0 .128 1.553.848 2.455 1.132 2.71.836 5.929.475 8.346-.952 1.718-1.016 3.435-3.036 4.237-4.992.433-1.041.865-2.945.865-3.858 0-.592.038-.669.75-1.376.42-.412.814-.862.891-.99.128-.245.114-.245-.534-.026-1.081.386-1.234.335-.699-.244.394-.412.865-1.158.865-1.376 0-.038-.191.026-.407.141-.229.129-.738.322-1.12.437l-.687.219-.623-.426c-.344-.231-.826-.489-1.081-.566-.65-.18-1.642-.154-2.228.052z" fill="#333"></path>
  </symbol>
</svg>

